<svg width="130" height="130" viewBox="0 0 130 130" fill="none" xmlns="http://www.w3.org/2000/svg">
<path d="M108.333 16.25H21.6667C15.6836 16.25 10.8333 21.1002 10.8333 27.0833V81.25C10.8333 87.2331 15.6836 92.0833 21.6667 92.0833H108.333C114.316 92.0833 119.167 87.2331 119.167 81.25V27.0833C119.167 21.1002 114.316 16.25 108.333 16.25Z" stroke="#10382E" stroke-width="2" stroke-linecap="round" stroke-linejoin="round"/>
<path d="M43.3333 113.75H86.6667" stroke="#10382E" stroke-width="2" stroke-linecap="round" stroke-linejoin="round"/>
<path d="M65 92.0833V113.75" stroke="#10382E" stroke-width="2" stroke-linecap="round" stroke-linejoin="round"/>
<path d="M52 47L59 54L52 61L45 54L52 47Z" stroke="#78F9AE" stroke-width="2" stroke-linecap="round" stroke-linejoin="round"/>
<path d="M65 34L72 41L65 48L58 41L65 34Z" stroke="#78F9AE" stroke-width="2" stroke-linecap="round" stroke-linejoin="round"/>
<path d="M78 47L85 54L78 61L71 54L78 47Z" stroke="#78F9AE" stroke-width="2" stroke-linecap="round" stroke-linejoin="round"/>
<path d="M65 60L72 67L65 74L58 67L65 60Z" stroke="#78F9AE" stroke-width="2" stroke-linecap="round" stroke-linejoin="round"/>
</svg>
