<svg width="340" height="80" viewBox="0 0 340 80" fill="none" xmlns="http://www.w3.org/2000/svg">
<g clip-path="url(#clip0_8_612)">
<path fill-rule="evenodd" clip-rule="evenodd" d="M8.22896 74.8889L15.2441 70.8668L18.0607 69.2506L20.8259 67.6564L25.1646 65.1699L32.0552 61.2355L38.9529 65.1699L43.2844 67.6564L46.0492 69.2506L48.8733 70.8668L55.7417 74.8305L57.83 76.0152L59.867 77.1779L64 79.5473V41.4757L55.7417 36.7295V65.4039L50.1527 62.1862L41.9163 57.4766L38.7763 55.6484L36.1881 54.1857V6.90691H27.9294V55.3119L22.1936 58.6101L13.9648 63.3563L8.22896 66.6252V36.788L-0.000244141 41.5049V79.6059L4.10323 77.2364L6.1625 76.0736L8.22896 74.8889ZM50.1455 55.6191V-1.63477H41.9092V50.9095L50.1455 55.6191ZM22.2012 52.0065V15.4413H13.9719V56.7526L22.2012 52.0065Z" fill="#78F9AE"/>
</g>
<path d="M98.892 57.0001H106.085L112.716 34.1763H112.989L119.636 57.0001H126.83L136.818 22.091H128.756L122.977 46.3979H122.67L116.313 22.091H109.409L103.034 46.3467H102.744L96.9659 22.091H88.9034L98.892 57.0001Z" fill="#78F9AE"/>
<path d="M140.768 57.0001H164.359V50.9149H148.149V42.5797H163.081V36.4945H148.149V28.1763H164.291V22.091H140.768V57.0001Z" fill="#78F9AE"/>
<path d="M170.159 57.0001H192.506V50.9149H177.54V22.091H170.159V57.0001Z" fill="#78F9AE"/>
<path d="M190.895 22.091L203.628 44.6592V57.0001H210.957V44.6592L223.69 22.091H215.423L207.463 37.1251H207.122L199.162 22.091H190.895Z" fill="#78F9AE"/>
<path d="M228.595 28.1763H239.283V57.0001H246.578V28.1763H257.266V22.091H228.595V28.1763Z" fill="#78F9AE"/>
<path d="M269.368 22.091H261.987V57.0001H269.368V22.091Z" fill="#78F9AE"/>
<path d="M306.241 34.3126C305.27 26.2501 299.168 21.6138 291.088 21.6138C281.866 21.6138 274.827 28.1251 274.827 39.5456C274.827 50.932 281.747 57.4774 291.088 57.4774C300.037 57.4774 305.44 51.5285 306.241 45.1024L298.776 45.0683C298.077 48.8013 295.145 50.949 291.207 50.949C285.906 50.949 282.31 47.0115 282.31 39.5456C282.31 32.2842 285.855 28.1422 291.259 28.1422C295.298 28.1422 298.213 30.4774 298.776 34.3126H306.241Z" fill="#78F9AE"/>
<path d="M330.472 32.1308H337.545C337.443 25.9092 332.33 21.6138 324.557 21.6138C316.903 21.6138 311.295 25.841 311.33 32.182C311.312 37.3297 314.943 40.2785 320.841 41.6933L324.642 42.6479C328.443 43.5683 330.557 44.6592 330.574 47.0115C330.557 49.5683 328.136 51.307 324.386 51.307C320.551 51.307 317.79 49.5342 317.551 46.0399H310.409C310.597 53.591 316 57.4945 324.472 57.4945C332.994 57.4945 338.006 53.4206 338.023 47.0285C338.006 41.216 333.625 38.1308 327.557 36.7672L324.42 36.0172C321.386 35.3183 318.847 34.1933 318.898 31.6876C318.898 29.4376 320.892 27.7842 324.506 27.7842C328.034 27.7842 330.199 29.3865 330.472 32.1308Z" fill="#78F9AE"/>
<defs>
<clipPath id="clip0_8_612">
<rect width="64" height="80" fill="white"/>
</clipPath>
</defs>
</svg>
