<svg width="322" height="80" viewBox="0 0 322 80" fill="none" xmlns="http://www.w3.org/2000/svg">
<g clip-path="url(#clip0_8_620)">
<path d="M72.3411 4.61293C72.8076 4.77719 73.2139 5.07764 73.5078 5.47541C73.8016 5.87317 73.9694 6.34996 73.9893 6.8441C74.2427 9.48288 74.3507 12.1336 74.3128 14.7843C74.285 16.0003 74.257 17.2162 74.1761 18.4322C73.7187 18.2426 73.2865 18.0529 72.8263 17.8744C71.6661 17.417 70.531 16.9848 69.368 16.5776C69.3959 15.9584 69.4239 15.3644 69.4239 14.7424C69.449 12.7706 69.3959 10.771 69.2342 8.74617C67.3432 8.15212 65.3715 7.61106 63.3773 7.12578C60.8673 6.53174 58.3572 6.04368 55.8137 5.69227C54.3829 5.50541 53.0052 5.34085 51.6832 5.20698C50.3612 5.07311 48.9528 4.99223 47.5221 4.92808C46.4065 4.90019 45.3606 4.87509 44.2283 4.87509L42.5801 4.9002C42.0921 4.9002 41.5259 4.92808 40.9318 4.92808C39.5011 4.98386 38.1234 5.08984 36.7707 5.20698C35.4181 5.32412 34.071 5.50541 32.6403 5.69227C30.1302 6.04368 27.5894 6.52895 25.0766 7.12578C23.0769 7.61106 21.133 8.15212 19.2198 8.74617C18.8907 13.1858 19.0085 17.6473 19.5712 22.0634C19.8699 24.5339 20.3028 26.9862 20.8681 29.4095C21.1916 30.7873 21.5709 32.165 21.9837 33.487L22.0116 33.5958L22.0366 33.7045L22.0645 33.8133L22.1175 33.9193L22.1454 34.0281L22.1732 34.1368L22.2011 34.2456L22.3071 34.5412V34.5691L22.335 34.6751L22.5247 35.1883L22.5498 35.2971L22.7144 35.7293L22.7395 35.8102C23.5737 38.2289 24.5392 40.6002 25.6316 42.9137L25.6846 42.9946L25.7125 43.0782L25.7376 43.1312L25.7933 43.2121L25.8185 43.293L25.8464 43.3739L25.8994 43.4268C26.3066 44.2635 26.7361 45.1002 27.1711 45.9369C27.4947 46.478 27.7902 47.0525 28.0886 47.5573C28.44 48.1802 28.7645 48.7203 29.062 49.1777C29.9796 50.6642 30.9501 52.1228 31.9792 53.5285C33.0084 54.9341 34.057 56.284 35.22 57.6338C35.6533 58.147 36.1395 58.6871 36.6787 59.2542C37.1918 59.812 37.6771 60.3698 38.1373 60.8467C39.3254 62.0627 40.5664 63.2257 41.8103 64.358L42.3234 64.7903C41.972 65.0692 41.6207 65.3481 41.2442 65.627C40.2709 66.3549 39.2724 67.0577 38.2711 67.7605C32.8744 62.9226 28.2315 57.3049 24.4964 51.0937V51.0658L24.4685 51.0407L24.4407 51.0128C24.226 50.6614 24.0362 50.31 23.8466 50.0144C23.5231 49.4203 23.1717 48.8235 22.876 48.2573C21.9836 46.637 21.1721 44.9636 20.3912 43.2065C19.6103 41.4495 18.9326 39.7231 18.3106 37.994C17.4418 35.5497 16.7025 33.0613 16.0961 30.5391C14.2611 22.7791 13.7138 14.7704 14.4758 6.83295C14.4986 6.33807 14.6706 5.86169 14.9693 5.46645C15.268 5.07121 15.6793 4.77561 16.1492 4.61851C18.715 3.75394 21.3366 2.99812 23.9833 2.3483C26.577 1.75425 29.2488 1.23272 31.9792 0.836687C33.3737 0.647038 34.8408 0.485281 36.3803 0.351411C37.8668 0.214752 39.3254 0.10877 40.7561 0.0529909C41.2972 0.0529909 41.8717 0.0251081 42.4852 0.0251081L44.2423 0L45.9966 0.0251081C46.6185 0.0251081 47.2125 0.0529909 47.7257 0.0529909C49.1843 0.10877 50.6429 0.214752 52.1295 0.351411C53.669 0.485281 55.1276 0.647038 56.5053 0.836687C59.258 1.24109 61.9327 1.75425 64.5264 2.3483C67.1481 2.99812 69.7668 3.74278 72.3606 4.61851L72.3411 4.61293ZM56.5109 53.5313C57.4842 52.1535 58.4632 50.7423 59.3473 49.2892C59.6524 48.7413 60.153 48.3285 60.7489 48.1331C61.3449 47.9377 61.9927 47.9741 62.563 48.235C67.2566 50.4785 71.5175 53.5328 75.1495 57.2573C75.5745 57.6491 75.8479 58.1779 75.9218 58.7511C75.9958 59.3244 75.8656 59.9053 75.554 60.3921C74.7982 61.5802 73.9615 62.8213 73.1248 64.0373C72.2881 65.2532 71.3677 66.4414 70.478 67.5765C69.8282 68.4131 69.1254 69.2777 68.3696 70.1423C67.7225 70.8981 66.9919 71.7348 66.1831 72.6273C65.048 73.8711 63.9519 75.0034 62.8363 76.1107H62.8084C61.7291 77.1928 60.5773 78.247 59.378 79.2984C59.0242 79.6431 58.5753 79.8738 58.0891 79.9608C57.6029 80.0478 57.1017 79.9871 56.6503 79.7865C53.0951 78.1544 49.672 76.2485 46.4121 74.0859C46.8444 73.7624 47.2766 73.4389 47.7089 73.0874C48.6265 72.3567 49.5469 71.6288 50.4087 70.8563C52.6117 72.2565 54.894 73.5276 57.2444 74.6632C57.9723 73.9882 58.6751 73.3133 59.4058 72.6105C60.5381 71.4949 61.5924 70.424 62.5657 69.3419C63.2128 68.6669 63.8877 67.8581 64.6463 66.9935C65.2933 66.2098 65.9683 65.3983 66.6181 64.5365C67.5078 63.4544 68.3193 62.3471 69.103 61.212C69.5353 60.6542 69.9398 60.0239 70.3442 59.4299C69.1284 58.2643 67.8279 57.1904 66.4535 56.217C65.1517 55.273 63.7897 54.415 62.3762 53.6484C61.7542 54.5938 61.1071 55.5142 60.4572 56.4039C59.3249 57.9713 58.162 59.4299 56.9739 60.8355C56.4329 61.4547 55.9197 62.0236 55.4344 62.5647C55.2169 62.8436 54.9742 63.0779 54.7316 63.3456L54.7037 63.3735L54.6786 63.4014L54.6507 63.4265L54.6228 63.4544L54.5977 63.4823L54.5698 63.5101L54.5419 63.5353L54.4889 63.591V63.6161C51.9098 66.3327 49.1388 68.8604 46.1973 71.1798C41.7524 74.5928 36.9304 77.4844 31.8259 79.7977C31.3619 80.0058 30.845 80.0655 30.3458 79.9686C29.8466 79.8718 29.3895 79.6231 29.0369 79.2566C27.8461 78.2303 26.7389 77.1761 25.6316 76.1218C24.5161 75.0425 23.4172 73.8906 22.2849 72.6384C21.4482 71.7459 20.7202 70.9093 20.0703 70.1535C19.3424 69.2889 18.6397 68.4243 17.9647 67.5876C17.0723 66.4274 16.2077 65.2644 15.3431 64.0484C14.4786 62.8324 13.6698 61.5913 12.914 60.4032C12.3171 59.4578 11.6979 58.451 11.0759 57.4051C10.5182 56.3788 9.94084 55.3524 9.40257 54.3372C8.70254 53.0404 8.05276 51.7157 7.43083 50.3937C6.80889 49.0717 6.27064 47.7442 5.70448 46.3664C4.67814 43.8564 3.78569 41.2905 3.00199 38.6689C2.2183 36.0473 1.57126 33.4034 1.04972 30.7288C0.948196 30.2361 1.00297 29.7241 1.20647 29.2641C1.40996 28.8041 1.75196 28.4191 2.18478 28.1629C5.32952 25.9276 8.64353 23.9405 12.0967 22.2196C12.2306 23.5165 12.3951 24.7855 12.6099 26.0545C12.6629 26.4867 12.7437 26.919 12.8246 27.3513C10.5322 28.5503 8.31379 29.8858 6.18138 31.3507C6.61367 33.3755 7.12681 35.3472 7.69297 37.2661C8.42368 39.751 9.28835 42.1802 10.2338 44.5173C10.747 45.7863 11.2852 47.0553 11.8793 48.3243C12.4733 49.5933 13.0701 50.8343 13.7171 52.0252C14.2303 53.0265 14.7714 53.9775 15.3125 54.9425C15.8508 55.8349 16.4281 56.7804 17.0388 57.7788C17.7974 58.9669 18.5532 60.1299 19.3369 61.2092C20.1206 62.2886 20.9573 63.4404 21.8219 64.5337C22.4968 65.3955 23.1439 66.2071 23.8188 66.9907C24.5495 67.8553 25.2523 68.6641 25.8714 69.3391C26.8727 70.4212 27.9242 71.5005 29.0593 72.6077C29.7621 73.3105 30.4928 73.9855 31.1928 74.6353C35.2571 72.6802 39.1125 70.318 42.7 67.5848C47.9579 63.5976 52.6076 58.8662 56.5026 53.5396L56.5109 53.5313ZM86.2524 28.1518C86.6838 28.4107 87.0259 28.795 87.2332 29.2535C87.4404 29.7119 87.5031 30.2227 87.4126 30.7176C86.8716 33.3922 86.2245 36.0389 85.4408 38.6577C84.6571 41.2766 83.7674 43.8452 82.7662 46.3553C82.6647 46.6057 82.5181 46.8354 82.3338 47.033C81.9101 47.5243 81.31 47.829 80.6633 47.8812C80.0166 47.9334 79.3754 47.7289 78.8784 47.3119C77.0532 45.7232 75.1216 44.2611 73.0969 42.936C71.1074 41.6346 69.0313 40.4707 66.883 39.4526C66.3196 39.1984 65.8715 38.7428 65.6269 38.1751C65.3823 37.6075 65.3589 36.9688 65.5611 36.3847C66.369 34.1117 67.045 31.7939 67.5858 29.443C67.8285 28.5254 68.0181 27.6051 68.2078 26.6541C68.8297 26.8967 69.4239 27.1421 70.0458 27.4099C70.9634 27.8171 71.8808 28.2466 72.7984 28.6816C72.6645 29.3287 72.5195 29.9506 72.3662 30.5726C71.9367 32.3826 71.4486 34.1982 70.8825 35.9748C72.5559 36.8393 74.204 37.8099 75.7965 38.8362C77.0125 39.6478 78.2285 40.5096 79.3915 41.4021C79.8768 40.0522 80.3369 38.6745 80.7413 37.2716C81.3354 35.3528 81.8207 33.3671 82.2808 31.3563C78.7363 28.9326 74.9636 26.8608 71.0163 25.1703C68.5852 24.1196 66.0962 23.208 63.5615 22.4399C61.2452 21.7404 58.8912 21.1725 56.5109 20.7387C54.8375 20.4431 53.1084 20.2004 51.3513 20.0108C49.5943 19.8211 47.8679 19.7124 46.1388 19.6594L45.1682 19.6315H43.2774L42.3319 19.6594C40.6027 19.7124 38.8456 19.8211 37.1165 20.0108C35.3873 20.2004 33.6331 20.4431 31.9318 20.7387C29.5808 21.171 27.2324 21.765 24.8813 22.4399C23.9888 22.7188 23.0992 22.9978 22.2067 23.3045C22.1258 22.7914 22.045 22.3061 21.992 21.7929C21.8302 20.6327 21.7131 19.4976 21.6406 18.3346C28.9283 15.9251 36.5555 14.701 44.2312 14.709C53.7256 14.722 63.1275 16.5745 71.9172 20.1642C76.9864 22.2764 81.7985 24.959 86.2607 28.1601L86.2524 28.1518ZM41.2498 49.518C40.8454 49.0048 40.494 48.5446 40.1704 48.1402C37.6002 44.6215 35.4178 40.8353 33.6611 36.8477C33.4184 36.3094 33.173 35.7684 32.9582 35.2273C32.7435 34.6863 32.5789 34.2289 32.4004 33.7157C32.3232 33.5374 32.2688 33.3499 32.2387 33.1579C32.1811 32.8403 32.1873 32.5143 32.257 32.1992C32.3267 31.884 32.4585 31.5858 32.6446 31.3221C32.8307 31.0583 33.0676 30.8342 33.3412 30.6629C33.6148 30.4916 33.9198 30.3765 34.2383 30.3243C34.7515 30.2156 35.3538 30.1347 35.9674 30.0454L37.7217 29.8C38.8038 29.694 39.8832 29.6131 40.9904 29.5211C42.0976 29.4291 43.2215 29.4403 44.2339 29.4403C45.2463 29.4403 46.3396 29.4653 47.4998 29.5211C48.6153 29.602 49.6892 29.6829 50.7434 29.8L52.4976 30.0454C53.1474 30.1263 53.7136 30.2072 54.2547 30.3243C54.3926 30.3465 54.5279 30.382 54.659 30.4303C55.2703 30.651 55.7696 31.1043 56.048 31.6915C56.3265 32.2787 56.3615 32.9522 56.1455 33.5651C55.928 34.1229 55.7132 34.6974 55.4957 35.2385C55.2781 35.7795 55.0634 36.3206 54.8208 36.8589C53.9433 38.8464 52.9602 40.7857 51.8756 42.6683C50.786 44.5644 49.5866 46.3952 48.2835 48.1514C47.8781 48.6887 47.5277 49.1479 47.232 49.5291C46.7719 50.0869 46.4204 50.5555 46.1165 50.879C46.0213 50.9997 45.9117 51.1083 45.7902 51.2025C45.5449 51.4091 45.2608 51.5649 44.9547 51.6606C44.6486 51.7564 44.3265 51.7902 44.0072 51.7601C43.6878 51.7299 43.3776 51.6365 43.0948 51.4852C42.8119 51.334 42.5621 51.1279 42.3598 50.879C41.9554 50.4188 41.604 49.9865 41.2442 49.5291L41.2498 49.518Z" fill="#78F9AE"/>
</g>
<path d="M113.648 35.1118C115.376 32.4238 118.416 31.0798 122.768 31.0798V36.7918C122.256 36.6958 121.792 36.6478 121.376 36.6478C119.04 36.6478 117.216 37.3358 115.904 38.7118C114.592 40.0558 113.936 42.0078 113.936 44.5678V56.9998H107.936V31.3678H113.648V35.1118Z" fill="#78F9AE"/>
<path d="M151.719 44.3278C151.719 44.7438 151.688 45.3358 151.623 46.1038H131.511C131.863 47.9918 132.775 49.4958 134.247 50.6158C135.751 51.7038 137.607 52.2478 139.815 52.2478C142.632 52.2478 144.951 51.3198 146.775 49.4638L149.991 53.1598C148.839 54.5358 147.383 55.5758 145.623 56.2798C143.863 56.9838 141.879 57.3358 139.671 57.3358C136.855 57.3358 134.375 56.7758 132.231 55.6558C130.087 54.5358 128.423 52.9838 127.239 50.9998C126.087 48.9838 125.511 46.7118 125.511 44.1838C125.511 41.6878 126.071 39.4478 127.191 37.4638C128.343 35.4478 129.927 33.8798 131.943 32.7598C133.959 31.6398 136.231 31.0798 138.759 31.0798C141.255 31.0798 143.479 31.6398 145.431 32.7598C147.415 33.8478 148.951 35.3998 150.039 37.4158C151.16 39.3998 151.719 41.7038 151.719 44.3278ZM138.759 35.8798C136.839 35.8798 135.207 36.4558 133.863 37.6078C132.551 38.7278 131.751 40.2318 131.463 42.1198H146.007C145.751 40.2638 144.967 38.7598 143.655 37.6078C142.343 36.4558 140.711 35.8798 138.759 35.8798Z" fill="#78F9AE"/>
<path d="M165.403 57.3358C163.323 57.3358 161.291 57.0638 159.307 56.5198C157.323 55.9758 155.739 55.2878 154.555 54.4558L156.859 49.8958C158.011 50.6638 159.387 51.2878 160.987 51.7678C162.619 52.2158 164.219 52.4398 165.787 52.4398C169.371 52.4398 171.163 51.4958 171.163 49.6078C171.163 48.7118 170.699 48.0878 169.771 47.7358C168.875 47.3838 167.419 47.0478 165.403 46.7278C163.291 46.4078 161.563 46.0398 160.219 45.6238C158.907 45.2078 157.755 44.4878 156.763 43.4638C155.803 42.4078 155.323 40.9518 155.323 39.0958C155.323 36.6638 156.331 34.7278 158.347 33.2878C160.395 31.8158 163.147 31.0798 166.603 31.0798C168.363 31.0798 170.123 31.2878 171.883 31.7038C173.643 32.0878 175.083 32.6158 176.203 33.2878L173.899 37.8478C171.723 36.5678 169.275 35.9278 166.555 35.9278C164.795 35.9278 163.451 36.1998 162.523 36.7438C161.627 37.2558 161.179 37.9438 161.179 38.8078C161.179 39.7678 161.659 40.4558 162.619 40.8718C163.611 41.2558 165.131 41.6238 167.179 41.9758C169.227 42.2958 170.907 42.6638 172.219 43.0798C173.531 43.4958 174.651 44.1998 175.579 45.1918C176.539 46.1838 177.019 47.5918 177.019 49.4158C177.019 51.8158 175.979 53.7358 173.899 55.1758C171.819 56.6158 168.987 57.3358 165.403 57.3358Z" fill="#78F9AE"/>
<path d="M206.282 44.3278C206.282 44.7438 206.25 45.3358 206.186 46.1038H186.074C186.426 47.9918 187.338 49.4958 188.81 50.6158C190.314 51.7038 192.17 52.2478 194.378 52.2478C197.194 52.2478 199.514 51.3198 201.338 49.4638L204.554 53.1598C203.402 54.5358 201.946 55.5758 200.186 56.2798C198.426 56.9838 196.442 57.3358 194.234 57.3358C191.418 57.3358 188.938 56.7758 186.794 55.6558C184.65 54.5358 182.986 52.9838 181.802 50.9998C180.65 48.9838 180.074 46.7118 180.074 44.1838C180.074 41.6878 180.634 39.4478 181.754 37.4638C182.906 35.4478 184.49 33.8798 186.506 32.7598C188.522 31.6398 190.794 31.0798 193.322 31.0798C195.818 31.0798 198.042 31.6398 199.994 32.7598C201.978 33.8478 203.514 35.3998 204.602 37.4158C205.722 39.3998 206.282 41.7038 206.282 44.3278ZM193.322 35.8798C191.402 35.8798 189.77 36.4558 188.426 37.6078C187.114 38.7278 186.314 40.2318 186.026 42.1198H200.57C200.314 40.2638 199.53 38.7598 198.218 37.6078C196.906 36.4558 195.274 35.8798 193.322 35.8798Z" fill="#78F9AE"/>
<path d="M223.805 57.3358C221.149 57.3358 218.765 56.7758 216.653 55.6558C214.541 54.5358 212.893 52.9838 211.709 50.9998C210.525 48.9838 209.933 46.7118 209.933 44.1838C209.933 41.6558 210.525 39.3998 211.709 37.4158C212.893 35.4318 214.525 33.8798 216.605 32.7598C218.717 31.6398 221.117 31.0798 223.805 31.0798C226.333 31.0798 228.541 31.5918 230.429 32.6158C232.349 33.6398 233.789 35.1118 234.749 37.0318L230.141 39.7198C229.405 38.5358 228.477 37.6558 227.357 37.0798C226.269 36.4718 225.069 36.1678 223.757 36.1678C221.517 36.1678 219.661 36.9038 218.189 38.3758C216.717 39.8158 215.981 41.7518 215.981 44.1838C215.981 46.6158 216.701 48.5678 218.141 50.0398C219.613 51.4798 221.485 52.1998 223.757 52.1998C225.069 52.1998 226.269 51.9118 227.357 51.3358C228.477 50.7278 229.405 49.8318 230.141 48.6478L234.749 51.3358C233.757 53.2558 232.301 54.7438 230.381 55.7998C228.493 56.8238 226.301 57.3358 223.805 57.3358Z" fill="#78F9AE"/>
<path d="M264.752 31.3678V56.9998H259.04V53.7358C258.08 54.8878 256.88 55.7838 255.44 56.4238C254 57.0318 252.448 57.3358 250.784 57.3358C247.36 57.3358 244.656 56.3918 242.672 54.5038C240.72 52.5838 239.744 49.7518 239.744 46.0078V31.3678H245.744V45.1918C245.744 47.4958 246.256 49.2238 247.28 50.3758C248.336 51.4958 249.824 52.0558 251.744 52.0558C253.888 52.0558 255.584 51.3998 256.832 50.0878C258.112 48.7438 258.752 46.8238 258.752 44.3278V31.3678H264.752Z" fill="#78F9AE"/>
<path d="M278.32 35.1118C280.048 32.4238 283.088 31.0798 287.44 31.0798V36.7918C286.928 36.6958 286.464 36.6478 286.048 36.6478C283.712 36.6478 281.888 37.3358 280.576 38.7118C279.264 40.0558 278.608 42.0078 278.608 44.5678V56.9998H272.608V31.3678H278.32V35.1118Z" fill="#78F9AE"/>
<path d="M306.738 31.0798C309.234 31.0798 311.458 31.6238 313.41 32.7118C315.394 33.7998 316.946 35.3358 318.066 37.3198C319.186 39.3038 319.746 41.5918 319.746 44.1838C319.746 46.7758 319.186 49.0798 318.066 51.0958C316.946 53.0798 315.394 54.6158 313.41 55.7038C311.458 56.7918 309.234 57.3358 306.738 57.3358C304.978 57.3358 303.362 57.0318 301.89 56.4238C300.45 55.8158 299.234 54.9038 298.242 53.6878V56.9998H292.53V21.3838H298.53V34.4878C299.554 33.3678 300.754 32.5198 302.13 31.9438C303.538 31.3678 305.074 31.0798 306.738 31.0798ZM306.066 52.1998C308.274 52.1998 310.082 51.4638 311.49 49.9918C312.93 48.5198 313.65 46.5838 313.65 44.1838C313.65 41.7838 312.93 39.8478 311.49 38.3758C310.082 36.9038 308.274 36.1678 306.066 36.1678C304.626 36.1678 303.33 36.5038 302.178 37.1758C301.026 37.8158 300.114 38.7438 299.442 39.9598C298.77 41.1758 298.434 42.5838 298.434 44.1838C298.434 45.7838 298.77 47.1918 299.442 48.4078C300.114 49.6238 301.026 50.5678 302.178 51.2398C303.33 51.8798 304.626 52.1998 306.066 52.1998Z" fill="#78F9AE"/>
<defs>
<clipPath id="clip0_8_620">
<rect width="88" height="80" fill="white"/>
</clipPath>
</defs>
</svg>
