<svg width="283" height="80" viewBox="0 0 283 80" fill="none" xmlns="http://www.w3.org/2000/svg">
<path d="M96.216 26.672C96.216 41.072 111.696 43.016 111.696 53.384C111.696 56.984 110.112 58.28 107.592 58.28C105.072 58.28 103.488 56.984 103.488 53.384V49.784H96V52.88C96 60.944 100.032 65.552 107.808 65.552C115.584 65.552 119.616 60.944 119.616 52.88C119.616 38.48 104.136 36.536 104.136 26.168C104.136 22.568 105.576 21.2 108.096 21.2C110.616 21.2 112.056 22.568 112.056 26.168V28.256H119.544V26.672C119.544 18.608 115.584 14 107.88 14C100.176 14 96.216 18.608 96.216 26.672Z" fill="#78F9AE"/>
<path d="M131.077 64.976H138.998V48.272L149.006 14.576H141.445L135.397 37.544L129.349 14.576H121.069L131.077 48.272V64.976Z" fill="#78F9AE"/>
<path d="M163.152 14.576H152.136V64.976H159.048V29.336L164.952 64.976H172.44L177.912 28.832V64.976H185.4V14.576H174.384L168.984 50.36L163.152 14.576Z" fill="#78F9AE"/>
<path d="M188.857 21.776H197.137V64.976H205.058V21.776H213.338V14.576H188.857V21.776Z" fill="#78F9AE"/>
<path d="M241.45 64.976C240.658 63.104 240.586 61.304 240.586 58.856V51.08C240.586 45.824 239.29 42.008 235.33 40.352C238.858 38.696 240.514 35.312 240.514 30.128V26.168C240.514 18.392 236.986 14.576 228.778 14.576H216.826V64.976H224.746V44.456H227.482C231.082 44.456 232.666 46.184 232.666 50.864V58.784C232.666 62.888 232.954 63.68 233.386 64.976H241.45ZM228.562 21.776C231.37 21.776 232.594 23.36 232.594 26.96V31.928C232.594 35.96 230.794 37.256 227.842 37.256H224.746V21.776H228.562Z" fill="#78F9AE"/>
<path d="M245.794 64.976H253.714V14.576H245.794V64.976Z" fill="#78F9AE"/>
<path d="M274.985 46.184V53.384C274.985 56.984 273.401 58.28 270.881 58.28C268.361 58.28 266.777 56.984 266.777 53.384V26.168C266.777 22.568 268.361 21.2 270.881 21.2C273.401 21.2 274.985 22.568 274.985 26.168V31.568H282.473V26.672C282.473 18.608 278.441 14 270.665 14C262.889 14 258.857 18.608 258.857 26.672V52.88C258.857 60.944 262.889 65.552 270.665 65.552C278.441 65.552 282.473 60.944 282.473 52.88V46.184H274.985Z" fill="#78F9AE"/>
<g clip-path="url(#clip0_8_630)">
<path fill-rule="evenodd" clip-rule="evenodd" d="M27.2131 25.3641L22.8852 32.8462L18.7673 25.7032L23.0735 18.221H53.153L59.5398 7.14311H16.6814L8.23573 21.7925C14.5713 32.7377 20.8972 43.6828 27.2131 54.628H39.9866C36.7784 49.0746 33.5719 43.5223 30.3673 37.9707L29.4792 36.4339H58.7539L71.3443 58.2344L58.7539 80H12.5636L0.102305 58.0246L6.35988 47.1565L10.5046 54.2969L8.26267 58.2076L16.7083 72.857H54.6117L63.0843 58.2076L54.6387 43.5581H41.8652C44.5745 48.2771 47.2856 52.9951 49.9986 57.7123L50.3055 58.1995L48.2465 61.771H23.0951C15.4819 48.6063 7.87865 35.4515 0.285238 22.3066L-6.86646e-05 21.7845L12.5636 -0.0161133H71.9419L57.3032 25.3641H27.2131Z" fill="#78F9AE"/>
</g>
<defs>
<clipPath id="clip0_8_630">
<rect width="71.9446" height="80" fill="white"/>
</clipPath>
</defs>
</svg>
