<svg width="337" height="88" viewBox="0 0 337 88" fill="none" xmlns="http://www.w3.org/2000/svg">
<path d="M137.6 53.4802C137.6 57.6615 136.619 60.7335 134.656 62.6962C132.693 64.6589 129.664 65.6402 125.568 65.6402C121.515 65.6402 117.205 65.4269 112.64 65.0002V56.3602C115.968 56.5735 119.381 56.6802 122.88 56.6802C123.861 56.6802 124.629 56.4029 125.184 55.8482C125.781 55.2509 126.08 54.4615 126.08 53.4802V29.1602H117.76V20.2002H137.6V53.4802Z" fill="#78F9AE"/>
<path d="M166.398 65.0002H143.358V56.0402H149.118V29.1602H143.358V20.2002H166.398V29.1602H160.638V56.0402H166.398V65.0002Z" fill="#78F9AE"/>
<path d="M210.553 64.0402C200.569 65.1069 191.395 65.6402 183.033 65.6402C178.851 65.6402 175.779 64.6589 173.817 62.6962C171.854 60.7335 170.873 57.6615 170.873 53.4802V33.0002C170.873 28.5202 171.875 25.2775 173.881 23.2722C175.929 21.2242 179.193 20.2002 183.673 20.2002H206.713V29.1602H186.233C183.673 29.1602 182.393 30.4402 182.393 33.0002V53.4802C182.393 54.4615 182.67 55.2509 183.225 55.8482C183.822 56.4029 184.611 56.6802 185.593 56.6802C190.499 56.6802 194.979 56.5735 199.033 56.3602V47.0802H190.713V39.4002H210.553V64.0402Z" fill="#78F9AE"/>
<path d="M255.365 64.0402C245.381 65.1069 236.208 65.6402 227.845 65.6402C223.664 65.6402 220.592 64.6589 218.629 62.6962C216.666 60.7335 215.685 57.6615 215.685 53.4802V33.0002C215.685 28.5202 216.688 25.2775 218.693 23.2722C220.741 21.2242 224.005 20.2002 228.485 20.2002H251.525V29.1602H231.045C228.485 29.1602 227.205 30.4402 227.205 33.0002V53.4802C227.205 54.4615 227.482 55.2509 228.037 55.8482C228.634 56.4029 229.424 56.6802 230.405 56.6802C235.312 56.6802 239.792 56.5735 243.845 56.3602V47.0802H235.525V39.4002H255.365V64.0402Z" fill="#78F9AE"/>
<path d="M273.298 56.0402H296.658V65.0002H261.778V20.2002H273.298V56.0402Z" fill="#78F9AE"/>
<path d="M336.673 65.0002H301.153V20.2002H336.673V29.1602H312.673V37.8002H331.553V46.7602H312.673V56.0402H336.673V65.0002Z" fill="#78F9AE"/>
<g clip-path="url(#clip0_8_616)">
<path fill-rule="evenodd" clip-rule="evenodd" d="M4.86952 15.2719C6.16871 15.2775 7.41301 15.7962 8.33169 16.7148C9.25036 17.6335 9.76903 18.8779 9.77466 20.177C9.80907 21.4509 10.3393 22.6609 11.2525 23.5497C12.1656 24.4385 13.3895 24.9359 14.6638 24.9359C15.938 24.9359 17.162 24.4385 18.0751 23.5497C18.9882 22.6609 19.5185 21.4509 19.5529 20.177V4.90514C19.5585 3.60595 20.077 2.36156 20.9957 1.44289C21.9144 0.524214 23.1588 0.0056324 24.458 0C25.7522 0.0121957 26.9894 0.533907 27.9016 1.45208C28.8137 2.37025 29.3273 3.6109 29.3309 4.90514V36.9687C29.3133 37.6219 29.4268 38.2719 29.6645 38.8805C29.9023 39.4891 30.2597 40.0439 30.7154 40.5121C31.1711 40.9804 31.716 41.3525 32.3179 41.6066C32.9199 41.8607 33.5667 41.9916 34.2201 41.9916C34.8735 41.9916 35.5202 41.8607 36.1222 41.6066C36.7242 41.3525 37.2692 40.9804 37.7249 40.5121C38.1806 40.0439 38.5378 39.4891 38.7756 38.8805C39.0134 38.2719 39.1268 37.6219 39.1092 36.9687V20.177C39.1148 18.8779 39.6335 17.6335 40.5522 16.7148C41.4708 15.7962 42.7151 15.2775 44.0143 15.2719C45.3085 15.2841 46.5457 15.8059 47.4578 16.724C48.37 17.6422 48.8837 18.8828 48.8874 20.177V36.9687C48.8874 38.2649 49.4023 39.508 50.3189 40.4246C51.2354 41.3411 52.4784 41.856 53.7746 41.856C55.0708 41.856 56.314 41.3411 57.2305 40.4246C58.147 39.508 58.662 38.2649 58.662 36.9687V4.90514C58.6676 3.60534 59.1867 2.3604 60.1062 1.44163C61.0256 0.52285 62.2708 0.00469384 63.5706 0C64.8662 0.00660721 66.1064 0.526627 67.0192 1.44611C67.932 2.36559 68.4431 3.60952 68.4402 4.90514V20.177C68.4746 21.4509 69.0047 22.6609 69.9178 23.5497C70.831 24.4385 72.0549 24.9359 73.3291 24.9359C74.6034 24.9359 75.8275 24.4385 76.7406 23.5497C77.6538 22.6609 78.1839 21.4509 78.2183 20.177C78.2239 18.8772 78.743 17.6324 79.6625 16.7136C80.5819 15.7948 81.8273 15.2766 83.1271 15.2719C84.4227 15.2785 85.6628 15.7986 86.5756 16.7181C87.4884 17.6375 87.9993 18.8814 87.9965 20.177V67.8586C87.9918 69.1486 87.4772 70.3845 86.565 71.2966C85.6528 72.2088 84.4171 72.7234 83.1271 72.7281C81.8328 72.7253 80.5918 72.2127 79.6729 71.3012C78.7541 70.3897 78.2314 69.1528 78.2183 67.8586C78.2359 67.2054 78.1226 66.5554 77.8849 65.9468C77.6471 65.3382 77.2897 64.7834 76.834 64.3152C76.3783 63.847 75.8332 63.4748 75.2313 63.2207C74.6293 62.9666 73.9825 62.8357 73.3291 62.8357C72.6758 62.8357 72.0291 62.9666 71.4272 63.2207C70.8252 63.4748 70.2802 63.847 69.8245 64.3152C69.3687 64.7834 69.0114 65.3382 68.7736 65.9468C68.5358 66.5554 68.4226 67.2054 68.4402 67.8586V83.1127C68.4411 83.7526 68.3158 84.3864 68.0714 84.9778C67.8271 85.5692 67.4685 86.1066 67.0162 86.5593C66.5639 87.0119 66.0267 87.3709 65.4355 87.6157C64.8442 87.8605 64.2105 87.9862 63.5706 87.9857C62.2747 87.9876 61.0308 87.4759 60.1114 86.5625C59.192 85.6491 58.6721 84.4086 58.6655 83.1127V51.0063C58.6655 49.7101 58.1507 48.467 57.2342 47.5505C56.3176 46.6339 55.0745 46.119 53.7783 46.119C52.4821 46.119 51.2389 46.6339 50.3224 47.5505C49.4058 48.467 48.8909 49.7101 48.8909 51.0063V67.8336C48.8797 69.1223 48.3626 70.3549 47.451 71.2658C46.5395 72.1767 45.3066 72.6928 44.018 72.7031C42.7243 72.6994 41.4842 72.1863 40.5661 71.2749C39.648 70.3635 39.126 69.1272 39.1128 67.8336V51.0063C39.0784 49.7325 38.5482 48.5224 37.635 47.6336C36.7219 46.7449 35.498 46.2475 34.2237 46.2475C32.9495 46.2475 31.7254 46.7449 30.8122 47.6336C29.8991 48.5224 29.369 49.7325 29.3346 51.0063V83.1127C29.3308 84.4039 28.8162 85.6413 27.9031 86.5543C26.9901 87.4674 25.7528 87.982 24.4615 87.9857C23.1653 87.9886 21.9209 87.4771 21.0013 86.5635C20.0817 85.65 19.562 84.4089 19.5564 83.1127V67.8443C19.574 67.1912 19.4606 66.5411 19.2228 65.9325C18.985 65.3239 18.6278 64.7691 18.1721 64.3009C17.7164 63.8327 17.1714 63.4605 16.5694 63.2064C15.9674 62.9523 15.3207 62.8214 14.6673 62.8214C14.0139 62.8214 13.3671 62.9523 12.7651 63.2064C12.1632 63.4605 11.6183 63.8327 11.1626 64.3009C10.7069 64.7691 10.3495 65.3239 10.1117 65.9325C9.87395 66.5411 9.7605 67.1912 9.77815 67.8443C9.76502 69.1379 9.24296 70.3742 8.32489 71.2856C7.40683 72.197 6.16664 72.7101 4.87301 72.7138C3.58438 72.7035 2.35149 72.1873 1.43993 71.2764C0.528374 70.3655 0.011281 69.1329 9.15527e-05 67.8443V20.177C0.00378825 18.8828 0.51732 17.6422 1.42948 16.724C2.34164 15.8059 3.57882 15.2841 4.87301 15.2719H4.86952ZM19.5529 34.2397C19.5705 33.5865 19.4571 32.9364 19.2193 32.3278C18.9816 31.7192 18.6242 31.1644 18.1684 30.6962C17.7127 30.228 17.1679 29.8559 16.5659 29.6018C15.964 29.3477 15.3172 29.2167 14.6638 29.2167C14.0104 29.2167 13.3636 29.3477 12.7616 29.6018C12.1597 29.8559 11.6147 30.228 11.1589 30.6962C10.7032 31.1644 10.346 31.7192 10.1082 32.3278C9.87047 32.9364 9.75702 33.5865 9.77466 34.2397V53.796C9.80907 55.0698 10.3393 56.2799 11.2525 57.1687C12.1656 58.0575 13.3895 58.5548 14.6638 58.5548C15.938 58.5548 17.162 58.0575 18.0751 57.1687C18.9882 56.2799 19.5185 55.0698 19.5529 53.796V34.2397ZM68.4259 53.796V34.2397C68.4083 33.5865 68.5216 32.9364 68.7593 32.3278C68.9971 31.7192 69.3545 31.1644 69.8102 30.6962C70.2659 30.228 70.811 29.8559 71.4129 29.6018C72.0149 29.3477 72.6616 29.2167 73.315 29.2167C73.9684 29.2167 74.615 29.3477 75.217 29.6018C75.819 29.8559 76.364 30.228 76.8197 30.6962C77.2754 31.1644 77.6328 31.7192 77.8706 32.3278C78.1084 32.9364 78.2216 33.5865 78.204 34.2397V53.796C78.1696 55.0698 77.6395 56.2799 76.7263 57.1687C75.8132 58.0575 74.5893 58.5548 73.315 58.5548C72.0408 58.5548 70.8167 58.0575 69.9036 57.1687C68.9904 56.2799 68.4603 55.0698 68.4259 53.796Z" fill="#78F9AE"/>
</g>
<defs>
<clipPath id="clip0_8_616">
<rect width="88" height="88" fill="white"/>
</clipPath>
</defs>
</svg>
