<svg width="336" height="88" viewBox="0 0 336 88" fill="none" xmlns="http://www.w3.org/2000/svg">
<g clip-path="url(#clip0_8_624)">
<path fill-rule="evenodd" clip-rule="evenodd" d="M48.9667 86.3231C58.4907 85.2112 67.3607 80.9176 74.1409 74.1374C80.921 67.3573 85.2145 58.4873 86.3264 48.9634H70.3201C69.3104 54.249 66.7341 59.1087 62.9259 62.9106C59.1178 66.7126 54.254 69.281 48.9667 70.282V86.3231Z" fill="#78F9AE"/>
<path fill-rule="evenodd" clip-rule="evenodd" d="M63.185 5.95131L63.2857 5.88536C73.6429 -0.0657968 82.0176 -1.81579 85.9168 2.08683C96.9476 13.1142 65.8411 47.4149 56.6262 56.6298C51.0845 62.1878 45.2118 67.4054 39.0401 72.2542V86.3127C34.0782 85.7494 29.2571 84.303 24.8045 82.042L24.7038 82.108C14.3466 88.0591 5.97551 89.8091 2.07288 85.9273C-3.27413 80.5803 2.98245 68.2717 5.94066 63.1921C3.69367 58.7339 2.24817 53.9153 1.67007 48.9565H17.711C18.4124 52.6796 19.8963 56.2114 22.0642 59.3184C24.2321 62.4254 27.0347 65.0369 30.287 66.9802C28.4363 68.3239 26.5544 69.6016 24.6031 70.7994C21.7456 72.6153 18.7874 74.3305 15.7251 75.8756C13.3284 73.7532 11.1847 71.3613 9.33646 68.7474C6.10742 74.9694 5.03109 79.5421 6.7463 81.2469C14.1106 88.5383 47.2342 58.1125 52.6819 52.6648C58.4818 46.8725 63.9069 40.7168 68.9243 34.2349C67.271 30.0096 64.5702 26.2743 61.076 23.3801C57.5817 20.4859 53.4087 18.528 48.9494 17.6904V1.64935C53.9123 2.20771 58.7343 3.65432 63.185 5.92003V5.95131ZM78.653 19.2355C81.8821 13.0135 82.9584 8.44079 81.2432 6.736C79.528 5.03121 74.9936 6.13188 68.7681 9.36092C72.5953 12.077 75.937 15.4188 78.653 19.2459V19.2355Z" fill="#78F9AE"/>
<path fill-rule="evenodd" clip-rule="evenodd" d="M39.0471 1.68066C29.5229 2.79332 20.6529 7.08756 13.8728 13.8683C7.09265 20.6491 2.79917 29.5195 1.68741 39.0438H17.7285C18.7245 33.7576 21.2918 28.8947 25.0952 25.0907C28.8985 21.2867 33.761 18.7185 39.0471 17.7217V1.68066Z" fill="#78F9AE"/>
</g>
<path d="M160.625 54.1875C160.625 56.0417 160.271 57.7917 159.562 59.4375C158.875 61.0625 157.917 62.4896 156.688 63.7188C155.479 64.9271 154.052 65.8854 152.406 66.5938C150.781 67.2812 149.042 67.625 147.188 67.625C145.521 67.625 143.917 67.3333 142.375 66.75C140.854 66.1667 139.479 65.3125 138.25 64.1875C137.021 65.3125 135.635 66.1667 134.094 66.75C132.552 67.3333 130.948 67.625 129.281 67.625C127.427 67.625 125.677 67.2812 124.031 66.5938C122.406 65.8854 120.979 64.9271 119.75 63.7188C118.542 62.4896 117.583 61.0625 116.875 59.4375C116.188 57.7917 115.844 56.0417 115.844 54.1875V22.1875H124.812V54.1875C124.812 54.8125 124.927 55.4062 125.156 55.9688C125.385 56.5104 125.698 56.9896 126.094 57.4062C126.51 57.8021 126.99 58.1146 127.531 58.3438C128.073 58.5729 128.656 58.6875 129.281 58.6875C129.906 58.6875 130.49 58.5729 131.031 58.3438C131.573 58.1146 132.042 57.8021 132.438 57.4062C132.854 56.9896 133.177 56.5104 133.406 55.9688C133.635 55.4062 133.75 54.8125 133.75 54.1875V22.1875H142.719V54.1875C142.719 54.8125 142.833 55.4062 143.062 55.9688C143.292 56.5104 143.604 56.9896 144 57.4062C144.417 57.8021 144.896 58.1146 145.438 58.3438C145.979 58.5729 146.562 58.6875 147.188 58.6875C147.812 58.6875 148.396 58.5729 148.938 58.3438C149.479 58.1146 149.948 57.8021 150.344 57.4062C150.76 56.9896 151.083 56.5104 151.312 55.9688C151.562 55.4062 151.688 54.8125 151.688 54.1875V22.1875H160.625V54.1875Z" fill="#78F9AE"/>
<path d="M177.812 24.4375C177.812 25.2292 177.656 25.9688 177.344 26.6562C177.052 27.3438 176.646 27.9479 176.125 28.4688C175.604 28.9688 174.99 29.375 174.281 29.6875C173.594 29.9792 172.854 30.125 172.062 30.125C171.271 30.125 170.521 29.9792 169.812 29.6875C169.125 29.375 168.521 28.9688 168 28.4688C167.5 27.9479 167.094 27.3438 166.781 26.6562C166.49 25.9688 166.344 25.2292 166.344 24.4375C166.344 23.6667 166.49 22.9375 166.781 22.25C167.094 21.5417 167.5 20.9375 168 20.4375C168.521 19.9167 169.125 19.5104 169.812 19.2188C170.521 18.9062 171.271 18.75 172.062 18.75C172.854 18.75 173.594 18.9062 174.281 19.2188C174.99 19.5104 175.604 19.9167 176.125 20.4375C176.646 20.9375 177.052 21.5417 177.344 22.25C177.656 22.9375 177.812 23.6667 177.812 24.4375ZM176.344 67H167.75V33.5312H176.344V67Z" fill="#78F9AE"/>
<path d="M201.25 67H181.75V58.5H201.25C201.833 58.5 202.333 58.2917 202.75 57.875C203.167 57.4583 203.375 56.9583 203.375 56.375C203.375 55.7708 203.167 55.375 202.75 55.1875C202.333 55 201.833 54.9062 201.25 54.9062H192.375C190.896 54.9062 189.51 54.625 188.219 54.0625C186.927 53.5 185.802 52.7396 184.844 51.7812C183.885 50.8021 183.125 49.6667 182.562 48.375C182.021 47.0833 181.75 45.6979 181.75 44.2188C181.75 42.7396 182.021 41.3542 182.562 40.0625C183.125 38.7708 183.885 37.6458 184.844 36.6875C185.802 35.7292 186.927 34.9792 188.219 34.4375C189.51 33.875 190.896 33.5938 192.375 33.5938H209.656V42.0938H192.375C191.792 42.0938 191.292 42.3021 190.875 42.7188C190.458 43.1354 190.25 43.6354 190.25 44.2188C190.25 44.8229 190.458 45.3438 190.875 45.7812C191.292 46.1979 191.792 46.4062 192.375 46.4062H201.25C202.708 46.4062 204.083 46.6562 205.375 47.1562C206.667 47.6354 207.792 48.3125 208.75 49.1875C209.708 50.0625 210.469 51.1146 211.031 52.3438C211.594 53.5729 211.875 54.9167 211.875 56.375C211.875 57.8542 211.594 59.2396 211.031 60.5312C210.469 61.8021 209.708 62.9271 208.75 63.9062C207.792 64.8646 206.667 65.625 205.375 66.1875C204.083 66.7292 202.708 67 201.25 67Z" fill="#78F9AE"/>
<path d="M224.969 67H216.438V20.2188H224.969V35C225.99 34.2292 227.042 33.6875 228.125 33.375C229.208 33.0417 230.312 32.875 231.438 32.875C233.5 32.875 235.438 33.2708 237.25 34.0625C239.062 34.8333 240.635 35.9062 241.969 37.2812C243.323 38.6354 244.385 40.2292 245.156 42.0625C245.948 43.875 246.344 45.8125 246.344 47.875V67H237.75V47.875H237.812C237.812 47 237.646 46.1771 237.312 45.4062C236.979 44.6146 236.521 43.9271 235.938 43.3438C235.354 42.7604 234.677 42.3021 233.906 41.9688C233.135 41.6354 232.312 41.4688 231.438 41.4688C230.542 41.4688 229.698 41.6354 228.906 41.9688C228.115 42.3021 227.427 42.7604 226.844 43.3438C226.26 43.9271 225.802 44.6146 225.469 45.4062C225.135 46.1771 224.969 47 224.969 47.875V67Z" fill="#78F9AE"/>
<path d="M265.75 58.8125C266.083 58.9167 266.417 58.9896 266.75 59.0312C267.083 59.0521 267.417 59.0625 267.75 59.0625C268.583 59.0625 269.385 58.9479 270.156 58.7188C270.927 58.4896 271.646 58.1667 272.312 57.75C273 57.3125 273.604 56.7917 274.125 56.1875C274.667 55.5625 275.104 54.875 275.438 54.125L281.688 60.4062C280.896 61.5312 279.979 62.5417 278.938 63.4375C277.917 64.3333 276.802 65.0938 275.594 65.7188C274.406 66.3438 273.146 66.8125 271.812 67.125C270.5 67.4583 269.146 67.625 267.75 67.625C265.396 67.625 263.177 67.1875 261.094 66.3125C259.031 65.4375 257.219 64.2188 255.656 62.6562C254.115 61.0938 252.896 59.2396 252 57.0938C251.104 54.9271 250.656 52.5521 250.656 49.9688C250.656 47.3229 251.104 44.9062 252 42.7188C252.896 40.5312 254.115 38.6667 255.656 37.125C257.219 35.5833 259.031 34.3854 261.094 33.5312C263.177 32.6771 265.396 32.25 267.75 32.25C269.146 32.25 270.51 32.4167 271.844 32.75C273.177 33.0833 274.438 33.5625 275.625 34.1875C276.833 34.8125 277.958 35.5833 279 36.5C280.042 37.3958 280.958 38.4062 281.75 39.5312L265.75 58.8125ZM270.125 41.2188C269.729 41.0729 269.333 40.9792 268.938 40.9375C268.562 40.8958 268.167 40.875 267.75 40.875C266.583 40.875 265.479 41.0938 264.438 41.5312C263.417 41.9479 262.521 42.5521 261.75 43.3438C261 44.1354 260.406 45.0938 259.969 46.2188C259.531 47.3229 259.312 48.5729 259.312 49.9688C259.312 50.2812 259.323 50.6354 259.344 51.0312C259.385 51.4271 259.438 51.8333 259.5 52.25C259.583 52.6458 259.677 53.0312 259.781 53.4062C259.885 53.7812 260.021 54.1146 260.188 54.4062L270.125 41.2188Z" fill="#78F9AE"/>
<path d="M294.656 67H286.062V20.2188H294.656V67Z" fill="#78F9AE"/>
<path d="M309.781 79.75H301.188V33.5312H303.25L306.656 37.5625C307.427 36.8333 308.271 36.1458 309.188 35.5C310.104 34.8542 311.052 34.3021 312.031 33.8438C313.031 33.3646 314.062 32.9896 315.125 32.7188C316.188 32.4479 317.26 32.3125 318.344 32.3125C320.698 32.3125 322.906 32.7396 324.969 33.5938C327.052 34.4271 328.865 35.6146 330.406 37.1562C331.969 38.6979 333.198 40.5625 334.094 42.75C334.99 44.9167 335.438 47.3229 335.438 49.9688C335.438 52.7188 334.99 55.1979 334.094 57.4062C333.198 59.5938 331.969 61.4583 330.406 63C328.865 64.5208 327.052 65.6875 324.969 66.5C322.906 67.3125 320.698 67.7188 318.344 67.7188C317.594 67.7188 316.844 67.6354 316.094 67.4688C315.365 67.3021 314.635 67.0833 313.906 66.8125C313.198 66.5208 312.49 66.1979 311.781 65.8438C311.094 65.4896 310.427 65.125 309.781 64.75V79.75ZM326.875 49.9688C326.875 48.5521 326.646 47.2812 326.188 46.1562C325.75 45.0312 325.146 44.0833 324.375 43.3125C323.604 42.5208 322.698 41.9167 321.656 41.5C320.615 41.0833 319.51 40.875 318.344 40.875C317.177 40.875 316.073 41.0833 315.031 41.5C314.01 41.9167 313.115 42.5208 312.344 43.3125C311.573 44.0833 310.958 45.0312 310.5 46.1562C310.062 47.2812 309.844 48.5521 309.844 49.9688C309.844 51.3229 310.062 52.5625 310.5 53.6875C310.958 54.8125 311.573 55.7708 312.344 56.5625C313.115 57.3542 314.01 57.9688 315.031 58.4062C316.073 58.8438 317.177 59.0625 318.344 59.0625C319.51 59.0625 320.615 58.8438 321.656 58.4062C322.698 57.9688 323.604 57.3542 324.375 56.5625C325.146 55.7708 325.75 54.8125 326.188 53.6875C326.646 52.5625 326.875 51.3229 326.875 49.9688Z" fill="#78F9AE"/>
<defs>
<clipPath id="clip0_8_624">
<rect width="88.2604" height="88" fill="white"/>
</clipPath>
</defs>
</svg>
