<svg width="202" height="46" viewBox="0 0 202 46" fill="none" xmlns="http://www.w3.org/2000/svg">
<path d="M21.969 45L13.7895 29.379H13.728V45H0.075V1.458H20.37C23.896 1.458 26.9095 2.0935 29.4105 3.3645C31.9115 4.5945 33.777 6.296 35.007 8.469C36.278 10.601 36.9135 13.02 36.9135 15.726C36.9135 18.637 36.0935 21.22 34.4535 23.475C32.8545 25.73 30.538 27.3495 27.504 28.3335L36.975 45H21.969ZM13.728 20.277H19.14C20.452 20.277 21.436 19.99 22.092 19.416C22.748 18.801 23.076 17.858 23.076 16.587C23.076 15.439 22.7275 14.537 22.0305 13.881C21.3745 13.225 20.411 12.897 19.14 12.897H13.728V20.277ZM62.4927 45.4305C58.3927 45.4305 54.6207 44.467 51.1767 42.54C47.7737 40.613 45.0677 37.948 43.0587 34.545C41.0497 31.142 40.0452 27.3085 40.0452 23.0445C40.0452 18.7805 41.0497 14.947 43.0587 11.544C45.0677 8.141 47.7737 5.4965 51.1767 3.6105C54.6207 1.6835 58.3927 0.719998 62.4927 0.719998C66.5927 0.719998 70.3442 1.6835 73.7472 3.6105C77.1502 5.4965 79.8357 8.141 81.8037 11.544C83.8127 14.947 84.8172 18.7805 84.8172 23.0445C84.8172 27.3085 83.8127 31.142 81.8037 34.545C79.8357 37.948 77.1297 40.613 73.6857 42.54C70.2827 44.467 66.5517 45.4305 62.4927 45.4305ZM62.4927 32.7C65.1987 32.7 67.2897 31.839 68.7657 30.117C70.2417 28.354 70.9797 25.9965 70.9797 23.0445C70.9797 20.0515 70.2417 17.694 68.7657 15.972C67.2897 14.209 65.1987 13.3275 62.4927 13.3275C59.7457 13.3275 57.6342 14.209 56.1582 15.972C54.6822 17.694 53.9442 20.0515 53.9442 23.0445C53.9442 25.9965 54.6822 28.354 56.1582 30.117C57.6342 31.839 59.7457 32.7 62.4927 32.7ZM131.501 45H117.848L103.395 23.106V45H89.7425V1.458H103.395L117.848 23.721V1.458H131.501V45ZM151.322 1.458V45H137.669V1.458H151.322ZM185.225 45L177.23 33.684L170.588 45H155.029L169.358 22.5525L154.414 1.458H170.588L178.276 12.3435L184.672 1.458H200.231L186.148 23.475L201.4 45H185.225Z" fill="#78F9AE"/>
</svg>
