<svg width="145" height="45" viewBox="0 0 145 45" fill="none" xmlns="http://www.w3.org/2000/svg">
<g clip-path="url(#clip0_1_6764)">
<g clip-path="url(#clip1_1_6764)">
<path d="M144.813 15.7404H102.598V-0.675323H144.813L140.072 7.53254L144.813 15.7404Z" fill="#78F9AE"/>
<path d="M133.027 6.29492L137.134 6.29492V2.09744L133.027 2.09744V6.29492Z" fill="#78F9AE"/>
<path d="M104.983 13.2891V1.78082H108.066V13.2891H104.983Z" fill="#10382E"/>
<path d="M119.078 10.0079C119.078 12.8861 116.956 13.2891 114.924 13.2891H110.014V1.78082H114.088C116.651 1.78082 118.604 1.86237 118.604 4.88456V5.15799C118.604 6.08863 118.209 6.94252 117.332 7.23035C118.463 7.53736 119.078 8.37206 119.078 9.44662V10.0079V10.0079ZM115.525 4.91334C115.525 4.44802 115.337 4.22256 114.567 4.22256H113.103V6.18458H114.581C115.351 6.18458 115.525 5.9735 115.525 5.54176V4.91334ZM115.994 9.39864C115.994 8.77022 115.726 8.53037 114.595 8.53037H113.103V10.8426H114.736C115.839 10.8426 115.994 10.4732 115.994 10.0367V9.39385V9.39864Z" fill="#10382E"/>
<path d="M122.898 13.2891V9.33628L119.059 1.78082H122.659L124.513 6.55395L126.367 1.78082H129.812L125.973 9.33628V13.2891H122.889H122.898Z" fill="#10382E"/>
<path d="M134.914 9.62411L132.994 13.2891H129.568L133.074 7.38865L129.676 1.78082H133.229L135.069 5.20596L136.876 1.78082H140.302L136.937 7.38865L140.443 13.2891H136.857L134.905 9.62411H134.914Z" fill="#10382E"/>
<path d="M12.4194 36.8476C11.4478 37.1882 8.57059 37.9413 6.00786 37.9413C1.61461 37.9413 0 36.5837 0 32.3383V26.2219C0 22.0485 1.37524 20.1296 6.07827 20.1296C7.93226 20.1296 10.1148 20.3743 12.2035 20.7868L11.3962 24.5717C8.88037 24.1592 7.95573 24.0153 6.7213 24.0153C4.84384 24.0153 4.65609 24.7204 4.65609 26.4426V32.1224C4.65609 33.504 4.96587 34.0173 6.58049 34.0173C8.05429 34.0173 9.42953 33.7246 11.2554 33.1442L12.4194 36.8572V36.8476Z" fill="white"/>
<path d="M20.5629 37.9415C15.9584 37.9415 13.7007 35.9507 13.7007 31.8011V26.2701C13.7007 22.1206 15.9584 20.1298 20.5629 20.1298H21.1308C25.7352 20.1298 27.9929 22.1206 27.9929 26.2701V31.8011C27.9929 35.9507 25.7352 37.9415 21.1308 37.9415H20.5629ZM23.3415 25.8815C23.3415 24.2553 22.675 23.7708 20.99 23.7708H20.7037C19.0186 23.7708 18.3521 24.2553 18.3521 25.8815V32.1897C18.3521 33.8159 19.0186 34.3004 20.7037 34.3004H20.99C22.675 34.3004 23.3415 33.8159 23.3415 32.1897V25.8815V25.8815Z" fill="white"/>
<path d="M40.5531 37.7208L35.0193 28.0162V37.7208H30.5087V20.3504H34.9254L40.5061 29.9351V20.3504H45.0167V37.7256H40.5531V37.7208Z" fill="white"/>
<path d="M60.5198 32.4344C60.5198 35.8787 58.2904 37.9415 53.6343 37.9415C51.0715 37.9415 48.6731 37.433 47.2932 37.0444L48.4572 33.2355C49.4288 33.5281 51.4705 34.0606 53.6343 34.0606C55.5117 34.0606 56.0327 33.4322 56.0327 32.6551V32.2665C56.0327 31.3215 55.5352 31.0048 54.1083 31.0048H52.5876C49.1471 31.0048 47.4574 29.2827 47.4574 25.9103V25.7664C47.4574 22.1973 49.5696 20.1346 53.179 20.1346H53.6061C55.8121 20.1346 58.7128 20.4752 60.0411 20.715L59.0695 24.5C57.6426 24.3081 55.033 24.0155 53.822 24.0155H53.4653C52.2309 24.0155 51.9211 24.6727 51.9211 25.3251V25.5937C51.9211 26.1262 52.137 26.6874 53.2259 26.6874H55.5305C58.5438 26.6874 60.5151 28.2177 60.5151 31.9787V32.4392L60.5198 32.4344Z" fill="white"/>
<path d="M69.1608 37.9415C64.9366 37.9415 62.632 36.1234 62.632 31.8012V20.3456H67.2834V31.9211C67.2834 33.2787 67.6166 34.2285 69.3486 34.2285H70.0151C71.747 34.2285 72.0803 33.2835 72.0803 31.9211V20.3456H76.7317V31.8012C76.7317 36.1186 74.4271 37.9415 70.2028 37.9415H69.1561H69.1608Z" fill="white"/>
<path d="M79.5385 37.7208V20.3504H84.1946V33.8399H91.0802V37.7208H79.5432H79.5385Z" fill="white"/>
<path d="M95.065 37.7208V24.2313H90.5779V20.3504H104.56L103.969 24.2313H99.7211V37.7208H95.065Z" fill="white"/>
<path d="M106.297 37.7208V20.3504H110.953V37.7256H106.297V37.7208Z" fill="white"/>
<path d="M123.936 37.7208L118.402 28.0162V37.7208H113.891V20.3504H118.308L123.889 29.9351V20.3504H128.399V37.7256H123.936V37.7208Z" fill="white"/>
<path d="M140.415 30.7842H137.519V27.0232H144.714V36.2673C142.433 37.433 139.988 37.9415 136.665 37.9415C133.722 37.9415 130.92 36.9724 130.92 32.6982V26.2173C130.92 22.0438 132.581 20.125 137.237 20.125C139.185 20.125 141.654 20.3696 144.287 20.8541L143.48 24.6151C140.631 24.1785 138.993 24.0346 137.665 24.0346C135.787 24.0346 135.576 24.6918 135.576 26.39V32.6502C135.576 33.9599 136.073 34.1805 137.453 34.1805C138.214 34.1805 139.636 34.0126 140.42 33.8159V30.7842H140.415Z" fill="white"/>
</g>
</g>
<defs>
<clipPath id="clip0_1_6764">
<rect width="144.813" height="44.1192" fill="white"/>
</clipPath>
<clipPath id="clip1_1_6764">
<rect width="144.813" height="38.6168" fill="white" transform="translate(0 -0.675323)"/>
</clipPath>
</defs>
</svg>
