<svg width="145" height="45" viewBox="0 0 145 45" fill="none" xmlns="http://www.w3.org/2000/svg">
<g clip-path="url(#clip0_1_6796)">
<g clip-path="url(#clip1_1_6796)">
<path d="M144.813 16.4157H102.598V0H144.813L140.072 8.20787L144.813 16.4157Z" fill="#78F9AE"/>
<path d="M133.027 6.9707L137.134 6.9707V2.77323L133.027 2.77323V6.9707Z" fill="#78F9AE"/>
<path d="M104.983 13.9643V2.45605H108.066V13.9643H104.983Z" fill="#10382E"/>
<path d="M119.078 10.6831C119.078 13.5614 116.956 13.9643 114.924 13.9643H110.014V2.45605H114.088C116.651 2.45605 118.604 2.53761 118.604 5.55979V5.83322C118.604 6.76387 118.209 7.61775 117.332 7.90558C118.463 8.21259 119.078 9.04729 119.078 10.1218V10.6831ZM115.525 5.58857C115.525 5.12325 115.337 4.89779 114.567 4.89779H113.103V6.85981H114.581C115.351 6.85981 115.525 6.64873 115.525 6.21699V5.58857ZM115.994 10.0739C115.994 9.44545 115.726 9.2056 114.595 9.2056H113.103V11.5178H114.736C115.839 11.5178 115.994 11.1484 115.994 10.7119V10.0691V10.0739Z" fill="#10382E"/>
<path d="M122.898 13.9643V10.0115L119.059 2.45605H122.659L124.513 7.22919L126.367 2.45605H129.812L125.973 10.0115V13.9643H122.889H122.898Z" fill="#10382E"/>
<path d="M134.914 10.2993L132.994 13.9643H129.568L133.074 8.06388L129.676 2.45605H133.229L135.069 5.8812L136.876 2.45605H140.302L136.937 8.06388L140.443 13.9643H136.857L134.905 10.2993H134.914Z" fill="#10382E"/>
<path d="M12.4194 37.5226C11.4478 37.8632 8.57059 38.6164 6.00786 38.6164C1.61461 38.6164 0 37.2588 0 33.0134V26.897C0 22.7235 1.37524 20.8047 6.07827 20.8047C7.93226 20.8047 10.1148 21.0493 12.2035 21.4619L11.3962 25.2468C8.88037 24.8343 7.95573 24.6904 6.7213 24.6904C4.84384 24.6904 4.65609 25.3955 4.65609 27.1177V32.7975C4.65609 34.1791 4.96587 34.6923 6.58049 34.6923C8.05429 34.6923 9.42953 34.3997 11.2554 33.8193L12.4194 37.5322V37.5226Z" fill="#10382E"/>
<path d="M20.5629 38.6164C15.9584 38.6164 13.7007 36.6256 13.7007 32.4761V26.945C13.7007 22.7955 15.9584 20.8047 20.5629 20.8047H21.1308C25.7352 20.8047 27.9929 22.7955 27.9929 26.945V32.4761C27.9929 36.6256 25.7352 38.6164 21.1308 38.6164H20.5629ZM23.3415 26.5564C23.3415 24.9302 22.675 24.4457 20.99 24.4457H20.7037C19.0186 24.4457 18.3521 24.9302 18.3521 26.5564V32.8646C18.3521 34.4909 19.0186 34.9754 20.7037 34.9754H20.99C22.675 34.9754 23.3415 34.4909 23.3415 32.8646V26.5564Z" fill="#10382E"/>
<path d="M40.5531 38.3948L35.0193 28.6902V38.3948H30.5087V21.0244H34.9254L40.5061 30.6091V21.0244H45.0167V38.3996H40.5531V38.3948Z" fill="#10382E"/>
<path d="M60.5198 33.1094C60.5198 36.5537 58.2904 38.6165 53.6343 38.6165C51.0715 38.6165 48.6731 38.108 47.2932 37.7194L48.4572 33.9105C49.4288 34.2031 51.4705 34.7356 53.6343 34.7356C55.5117 34.7356 56.0327 34.1072 56.0327 33.33V32.9415C56.0327 31.9964 55.5352 31.6798 54.1083 31.6798H52.5876C49.1471 31.6798 47.4574 29.9577 47.4574 26.5853V26.4414C47.4574 22.8723 49.5696 20.8096 53.179 20.8096H53.6061C55.8121 20.8096 58.7128 21.1502 60.0411 21.39L59.0695 25.1749C57.6426 24.9831 55.033 24.6904 53.822 24.6904H53.4653C52.2309 24.6904 51.9211 25.3476 51.9211 26.0001V26.2687C51.9211 26.8012 52.137 27.3624 53.2259 27.3624H55.5305C58.5438 27.3624 60.5151 28.8927 60.5151 32.6537V33.1142L60.5198 33.1094Z" fill="#10382E"/>
<path d="M69.1608 38.6163C64.9366 38.6163 62.632 36.7982 62.632 32.476V21.0205H67.2834V32.596C67.2834 33.9535 67.6166 34.9034 69.3486 34.9034H70.0151C71.747 34.9034 72.0803 33.9583 72.0803 32.596V21.0205H76.7317V32.476C76.7317 36.7934 74.4271 38.6163 70.2028 38.6163H69.1561H69.1608Z" fill="#10382E"/>
<path d="M79.5385 38.3948V21.0244H84.1946V34.5139H91.0801V38.3948H79.5432H79.5385Z" fill="#10382E"/>
<path d="M95.065 38.3948V24.9053H90.5779V21.0244H104.56L103.969 24.9053H99.7211V38.3948H95.065Z" fill="#10382E"/>
<path d="M106.297 38.3948V21.0244H110.953V38.3996H106.297V38.3948Z" fill="#10382E"/>
<path d="M123.936 38.3948L118.402 28.6902V38.3948H113.891V21.0244H118.308L123.889 30.6091V21.0244H128.399V38.3996H123.936V38.3948Z" fill="#10382E"/>
<path d="M140.415 31.459H137.519V27.6981H144.714V36.9421C142.433 38.1078 139.988 38.6163 136.665 38.6163C133.722 38.6163 130.92 37.6473 130.92 33.373V26.8921C130.92 22.7187 132.581 20.7998 137.237 20.7998C139.185 20.7998 141.654 21.0445 144.287 21.529L143.48 25.2899C140.631 24.8534 138.993 24.7095 137.665 24.7095C135.787 24.7095 135.576 25.3667 135.576 27.0648V33.3251C135.576 34.6347 136.073 34.8554 137.453 34.8554C138.214 34.8554 139.636 34.6875 140.42 34.4908V31.459H140.415Z" fill="#10382E"/>
</g>
</g>
<defs>
<clipPath id="clip0_1_6796">
<rect width="144.813" height="44.1192" fill="white"/>
</clipPath>
<clipPath id="clip1_1_6796">
<rect width="144.813" height="38.6168" fill="white"/>
</clipPath>
</defs>
</svg>
